<svg width="52" height="9" viewBox="0 0 52 9" fill="none" xmlns="http://www.w3.org/2000/svg">
<path d="M6.27212 4.38499L4.47227 7.46755L2.67243 4.38499H6.27212ZM6.75429 4.10948H2.18831L4.47227 8.01278L6.75429 4.10948Z" fill="#263238"/>
<path d="M9.40137 0.551006L11.2012 3.63356H7.60151L9.40137 0.551006ZM9.40137 0L7.1174 3.90328H11.6853L9.40137 0Z" fill="#263238"/>
<path d="M0 0L1.91503 3.45247L4.00768 0.0866921L0 0Z" fill="#4CAF4F"/>
<path d="M4.47232 0.302444L6.48104 3.73565H2.45969L4.47232 0.302444Z" fill="#4CAF4F"/>
<path d="M6.99834 4.48518L9.00902 8.0128H4.89201L6.93587 4.48518H6.99834Z" fill="#4CAF4F"/>
<path d="M7.43365 4.27132L9.40137 7.74497L11.3964 4.27132H7.43365Z" fill="#4CAF4F"/>
<path d="M20.0429 0.557236V7.35597H18.8013L15.8435 3.07688H15.7937V7.35597H14.3563V0.557236H15.6177L18.5524 4.833H18.6121V0.557236H20.0429Z" fill="#263238"/>
<path d="M23.5278 7.45556C23.0032 7.45556 22.5518 7.34933 22.1733 7.13687C21.7971 6.9222 21.5072 6.619 21.3036 6.22728C21.0999 5.83334 20.9981 5.36748 20.9981 4.82968C20.9981 4.30517 21.0999 3.84484 21.3036 3.44869C21.5072 3.05254 21.7938 2.74381 22.1634 2.5225C22.5352 2.30118 22.9711 2.19053 23.4713 2.19053C23.8077 2.19053 24.1209 2.24475 24.4108 2.35319C24.7029 2.45942 24.9574 2.61987 25.1743 2.83455C25.3934 3.04922 25.5638 3.31922 25.6856 3.64455C25.8073 3.96767 25.8681 4.34611 25.8681 4.77989V5.16829H21.5625V4.29189H24.5369C24.5369 4.08829 24.4927 3.90792 24.4042 3.75078C24.3156 3.59365 24.1928 3.47082 24.0357 3.3823C23.8807 3.29156 23.7004 3.24619 23.4946 3.24619C23.2799 3.24619 23.0896 3.29598 22.9236 3.39558C22.7598 3.49295 22.6314 3.62463 22.5385 3.79062C22.4455 3.95439 22.3979 4.13697 22.3957 4.33837V5.17161C22.3957 5.42391 22.4422 5.6419 22.5352 5.82559C22.6303 6.00928 22.7642 6.15092 22.9368 6.25051C23.1095 6.35011 23.3142 6.3999 23.551 6.3999C23.7081 6.3999 23.852 6.37777 23.9826 6.33351C24.1131 6.28924 24.2249 6.22285 24.3178 6.13432C24.4108 6.0458 24.4816 5.93736 24.5303 5.80899L25.8383 5.89531C25.7719 6.20957 25.6358 6.484 25.4299 6.71859C25.2263 6.95097 24.963 7.13245 24.6398 7.26302C24.3189 7.39138 23.9482 7.45556 23.5278 7.45556Z" fill="#263238"/>
<path d="M27.8815 2.25692L28.8177 4.0396L29.7771 2.25692H31.2278L29.7505 4.80645L31.2676 7.35597H29.8236L28.8177 5.59321L27.8284 7.35597H26.3678L27.8815 4.80645L26.4209 2.25692H27.8815Z" fill="#263238"/>
<path d="M34.189 7.45556C33.6667 7.45556 33.2174 7.34491 32.8412 7.12359C32.4671 6.90007 32.1794 6.59023 31.978 6.19408C31.7789 5.79793 31.6793 5.34202 31.6793 4.82636C31.6793 4.30407 31.78 3.84595 31.9814 3.45201C32.185 3.05586 32.4738 2.74713 32.8478 2.52582C33.2218 2.30229 33.6667 2.19053 34.1823 2.19053C34.6272 2.19053 35.0167 2.27131 35.3508 2.43286C35.685 2.59442 35.9495 2.82127 36.1443 3.1134C36.339 3.40553 36.4463 3.74857 36.4663 4.14251H35.1317C35.0941 3.888 34.9945 3.68328 34.833 3.52836C34.6736 3.37123 34.4645 3.29267 34.2056 3.29267C33.9865 3.29267 33.795 3.35242 33.6312 3.47193C33.4697 3.58922 33.3435 3.76074 33.2528 3.98648C33.1621 4.21222 33.1167 4.48554 33.1167 4.80645C33.1167 5.13178 33.161 5.40842 33.2495 5.63637C33.3402 5.86432 33.4675 6.03805 33.6312 6.15756C33.795 6.27707 33.9865 6.33683 34.2056 6.33683C34.3671 6.33683 34.5121 6.30363 34.6404 6.23723C34.771 6.17084 34.8783 6.07457 34.9624 5.94842C35.0488 5.82006 35.1052 5.66625 35.1317 5.48698H36.4663C36.4441 5.87649 36.3379 6.21953 36.1476 6.51609C35.9595 6.81044 35.6994 7.0406 35.3674 7.20659C35.0355 7.37257 34.6426 7.45556 34.189 7.45556Z" fill="#263238"/>
<path d="M39.6955 7.45556C39.171 7.45556 38.7195 7.34933 38.3411 7.13687C37.9648 6.9222 37.6749 6.619 37.4713 6.22728C37.2677 5.83334 37.1659 5.36748 37.1659 4.82968C37.1659 4.30517 37.2677 3.84484 37.4713 3.44869C37.6749 3.05254 37.9615 2.74381 38.3311 2.5225C38.7029 2.30118 39.1389 2.19053 39.6391 2.19053C39.9755 2.19053 40.2886 2.24475 40.5785 2.35319C40.8707 2.45942 41.1252 2.61987 41.3421 2.83455C41.5612 3.04922 41.7316 3.31922 41.8533 3.64455C41.975 3.96767 42.0359 4.34611 42.0359 4.77989V5.16829H37.7302V4.29189H40.7047C40.7047 4.08829 40.6604 3.90792 40.5719 3.75078C40.4834 3.59365 40.3605 3.47082 40.2034 3.3823C40.0485 3.29156 39.8681 3.24619 39.6623 3.24619C39.4476 3.24619 39.2573 3.29598 39.0913 3.39558C38.9275 3.49295 38.7992 3.62463 38.7062 3.79062C38.6133 3.95439 38.5657 4.13697 38.5635 4.33837V5.17161C38.5635 5.42391 38.61 5.6419 38.7029 5.82559C38.7981 6.00928 38.932 6.15092 39.1046 6.25051C39.2772 6.35011 39.4819 6.3999 39.7187 6.3999C39.8759 6.3999 40.0197 6.37777 40.1503 6.33351C40.2809 6.28924 40.3926 6.22285 40.4856 6.13432C40.5785 6.0458 40.6494 5.93736 40.698 5.80899L42.006 5.89531C41.9396 6.20957 41.8035 6.484 41.5977 6.71859C41.3941 6.95097 41.1307 7.13245 40.8076 7.26302C40.4867 7.39138 40.116 7.45556 39.6955 7.45556Z" fill="#263238"/>
<path d="M44.3729 4.40808V7.35597H42.9588V2.25692H44.3066V3.15656H44.3663C44.4792 2.86 44.6684 2.62541 44.934 2.45278C45.1996 2.27794 45.5216 2.19053 45.9 2.19053C46.2541 2.19053 46.5628 2.26799 46.8262 2.4229C47.0896 2.57782 47.2943 2.79914 47.4403 3.08684C47.5864 3.37234 47.6595 3.71316 47.6595 4.10931V7.35597H46.2453V4.36161C46.2475 4.04956 46.1678 3.80611 46.0062 3.63127C45.8447 3.45422 45.6223 3.3657 45.339 3.3657C45.1487 3.3657 44.9805 3.40664 44.8344 3.48853C44.6905 3.57041 44.5777 3.68992 44.4958 3.84705C44.4161 4.00197 44.3752 4.18898 44.3729 4.40808Z" fill="#263238"/>
<path d="M51.4862 2.25692V3.31922H48.4155V2.25692H51.4862ZM49.1126 1.03527H50.5268V5.78908C50.5268 5.91965 50.5468 6.02145 50.5866 6.09449C50.6264 6.16531 50.6818 6.2151 50.7526 6.24388C50.8256 6.27265 50.9097 6.28703 51.0049 6.28703C51.0713 6.28703 51.1377 6.2815 51.2041 6.27043C51.2704 6.25715 51.3214 6.24719 51.3568 6.24055L51.5792 7.2929C51.5084 7.31503 51.4088 7.34048 51.2804 7.36925C51.152 7.40023 50.996 7.41905 50.8123 7.42569C50.4715 7.43897 50.1727 7.3936 49.916 7.28958C49.6615 7.18556 49.4634 7.024 49.3218 6.8049C49.1801 6.5858 49.1104 6.30916 49.1126 5.97498V1.03527Z" fill="#263238"/>
</svg>
